<svg width="20" height="20" viewBox="0 0 20 20" fill="none" xmlns="http://www.w3.org/2000/svg">
<path d="M16.7531 6.17558L11.9966 3.52396C10.6003 2.74563 8.85517 3.71826 8.85517 5.27608V5.5481C8.85517 5.79384 8.99107 6.02128 9.21112 6.14357L10.1093 6.64418C10.373 6.79162 10.702 6.60761 10.702 6.31387V5.63725C10.702 5.29894 11.0809 5.0875 11.3837 5.25666L15.5035 7.55396C15.8068 7.72311 15.8068 8.146 15.5035 8.31403L11.3837 10.6113C11.0809 10.7805 10.702 10.569 10.702 10.2307V9.87067C10.702 8.31286 8.95687 7.33909 7.55962 8.11855L2.80312 10.7702C1.40677 11.5485 1.40677 13.4961 2.80312 14.2744L7.55962 16.926C8.95552 17.7044 10.702 16.7317 10.702 15.1739V14.9019C10.702 14.6561 10.5661 14.4298 10.346 14.3064L9.44782 13.8047C9.18412 13.6572 8.85517 13.8412 8.85517 14.135V14.8116C8.85517 15.1499 8.47672 15.3613 8.17342 15.1922L4.05367 12.8949C3.75082 12.7257 3.75082 12.3029 4.05367 12.1337L8.17342 9.83638C8.47672 9.66722 8.85517 9.87868 8.85517 10.217V10.577C8.85517 12.1348 10.6003 13.1086 11.9966 12.3292L16.7531 9.67753C18.1495 8.90146 18.1495 6.95391 16.7531 6.17558Z" fill="currentColor"/>
</svg>
