<svg width="20" height="20" viewBox="0 0 20 20" fill="none" xmlns="http://www.w3.org/2000/svg">
<path d="M1.66675 10C1.66675 6.85734 1.66675 5.286 2.64306 4.30968C3.61937 3.33337 5.19072 3.33337 8.33341 3.33337H11.6667C14.8094 3.33337 16.3808 3.33337 17.3571 4.30968C18.3334 5.286 18.3334 6.85734 18.3334 10C18.3334 13.1427 18.3334 14.7141 17.3571 15.6904C16.3808 16.6667 14.8094 16.6667 11.6667 16.6667H8.33341C5.19072 16.6667 3.61937 16.6667 2.64306 15.6904C1.66675 14.7141 1.66675 13.1427 1.66675 10Z" stroke="currentColor"/>
<path d="M8.33333 13.75H5" stroke="currentColor" stroke-linecap="round"/>
<path d="M6.66667 11.25H5" stroke="currentColor" stroke-linecap="round"/>
<path d="M1.66675 8.33337L18.3334 8.33337" stroke="currentColor" stroke-linecap="round"/>
<path d="M11.6667 12.5C11.6667 11.7144 11.6667 11.3215 11.9108 11.0775C12.1549 10.8334 12.5477 10.8334 13.3334 10.8334C14.1191 10.8334 14.5119 10.8334 14.756 11.0775C15.0001 11.3215 15.0001 11.7144 15.0001 12.5C15.0001 13.2857 15.0001 13.6786 14.756 13.9226C14.5119 14.1667 14.1191 14.1667 13.3334 14.1667C12.5477 14.1667 12.1549 14.1667 11.9108 13.9226C11.6667 13.6786 11.6667 13.2857 11.6667 12.5Z" stroke="currentColor"/>
</svg>
