<svg width="100" height="24" viewBox="0 0 100 24" fill="none" xmlns="http://www.w3.org/2000/svg">
<g clip-path="url(#clip0_1_326)">
<path d="M32.8167 16.6816C32.107 16.6816 31.4106 16.5878 30.7545 16.387C30.0983 16.1995 29.5493 15.9317 29.1074 15.5969L29.777 14.1105C30.6875 14.7399 31.7052 15.0613 32.8435 15.0613C33.4327 15.0613 33.888 14.9676 34.2093 14.7667C34.5173 14.5792 34.678 14.3114 34.678 13.9766C34.678 13.6686 34.5307 13.441 34.2495 13.2669C33.9549 13.0928 33.4327 12.9321 32.6962 12.7715C31.8659 12.5974 31.2098 12.3965 30.7143 12.1555C30.2189 11.9144 29.8573 11.6198 29.6297 11.2583C29.402 10.9101 29.2815 10.4816 29.2815 9.95938C29.2815 9.38357 29.4422 8.87472 29.7636 8.43282C30.0716 7.99092 30.5135 7.62937 31.0893 7.37494C31.6651 7.12052 32.3212 7 33.0711 7C33.7407 7 34.3834 7.09374 35.0128 7.2946C35.6288 7.49546 36.1242 7.74989 36.4858 8.08466L35.8162 9.57104C34.9458 8.94167 34.0353 8.62029 33.0845 8.62029C32.5355 8.62029 32.107 8.72742 31.799 8.92828C31.491 9.14253 31.3303 9.43713 31.3303 9.79869C31.3303 10.0129 31.3973 10.187 31.5178 10.3209C31.6383 10.4682 31.8392 10.5887 32.1204 10.6959C32.3882 10.803 32.7899 10.9101 33.3121 11.0306C34.5307 11.2985 35.4011 11.6466 35.9368 12.0617C36.459 12.4769 36.7268 13.0661 36.7268 13.8025C36.7268 14.6997 36.3787 15.3961 35.6957 15.9049C35.0128 16.4272 34.0486 16.6816 32.8167 16.6816Z" fill="#313131"/>
<path d="M41.5607 15.1825C41.7616 15.1825 41.9758 15.1691 42.2035 15.1424L42.0964 16.6153C41.8419 16.6555 41.5741 16.6689 41.3197 16.6689C40.3154 16.6689 39.5923 16.4547 39.137 16.0128C38.6683 15.5709 38.4407 14.9147 38.4407 14.0175V11.5H37.1953V9.98688H38.4407V8.05859H40.4627V9.98688H42.1098V11.5H40.4627V14.0041C40.4627 14.7942 40.8242 15.1825 41.5607 15.1825Z" fill="#313131"/>
<path d="M49.037 13.654H44.7519C44.8189 14.1762 44.993 14.5646 45.2742 14.7922C45.542 15.0333 45.9437 15.1538 46.466 15.1538C46.8007 15.1538 47.1489 15.1002 47.4837 14.9931C47.8051 14.8726 48.113 14.7119 48.3942 14.511L48.9299 15.8635C48.6085 16.1179 48.2202 16.3054 47.7649 16.4527C47.2962 16.6 46.8409 16.6669 46.3722 16.6669C45.2608 16.6669 44.3904 16.359 43.761 15.743C43.1183 15.1404 42.7969 14.3102 42.7969 13.2523C42.7969 12.5827 42.9308 11.9935 43.212 11.4713C43.4932 10.9491 43.8681 10.5473 44.3636 10.2661C44.8591 9.97152 45.4081 9.82422 46.0375 9.82422C46.9614 9.82422 47.6845 10.1188 48.2336 10.7214C48.7692 11.324 49.037 12.1274 49.037 13.1585V13.654ZM46.091 11.2169C45.7027 11.2169 45.4081 11.3374 45.1804 11.5784C44.9528 11.8328 44.8055 12.181 44.7519 12.6497H47.3364C47.3096 12.181 47.1891 11.8195 46.9748 11.5784C46.774 11.3374 46.4794 11.2169 46.091 11.2169Z" fill="#313131"/>
<path d="M52.274 7.12109H50.252V16.5616H52.274V7.12109Z" fill="#313131"/>
<path d="M55.8287 7.12109H53.8066V16.5616H55.8287V7.12109Z" fill="#313131"/>
<path d="M64.0469 9.98491V16.5598H62.0383V15.5823C61.8375 15.9171 61.5696 16.1849 61.2081 16.3723C60.8465 16.5732 60.4314 16.6669 59.9761 16.6669C59.4003 16.6669 58.9049 16.533 58.463 16.2518C58.0211 15.9706 57.6863 15.5823 57.4453 15.06C57.1908 14.5512 57.0703 13.962 57.0703 13.2791C57.0703 12.5961 57.1908 11.9935 57.4453 11.4713C57.6863 10.9491 58.0345 10.5473 58.4764 10.2661C58.9182 9.97152 59.4137 9.82422 59.9761 9.82422C60.4314 9.82422 60.8465 9.91796 61.2081 10.1054C61.5696 10.3063 61.8375 10.5741 62.0383 10.9089V9.98491H64.0469ZM60.5653 15.127C61.034 15.127 61.4089 14.9663 61.6634 14.6449C61.9178 14.3235 62.0383 13.8549 62.0383 13.2523C62.0383 12.6497 61.9178 12.181 61.6634 11.8462C61.4089 11.5249 61.034 11.3642 60.5653 11.3642C60.0966 11.3642 59.7217 11.5249 59.4673 11.873C59.2128 12.1944 59.0789 12.6765 59.0789 13.2791C59.0789 13.8816 59.2128 14.3369 59.4673 14.6583C59.7217 14.9663 60.0966 15.127 60.5653 15.127Z" fill="#313131"/>
<path d="M70.2978 11.4864L69.1596 11.6069C68.5972 11.6604 68.1955 11.8211 67.9678 12.0756C67.7402 12.3434 67.6197 12.6915 67.6197 13.1334V16.5615H65.5977V9.98658H67.5393V11.098C67.8741 10.3347 68.557 9.91963 69.5881 9.85267L70.1773 9.8125L70.2978 11.4864Z" fill="#313131"/>
<path d="M78.1722 16.6816C77.4624 16.6816 76.7661 16.5878 76.11 16.387C75.4538 16.1995 74.9048 15.9317 74.4629 15.5969L75.1324 14.1105C76.043 14.7399 77.0607 15.0613 78.1989 15.0613C78.7881 15.0613 79.2434 14.9676 79.5648 14.7667C79.8728 14.5792 80.0335 14.3114 80.0335 13.9766C80.0335 13.6686 79.8862 13.441 79.605 13.2669C79.3104 13.0928 78.7881 12.9321 78.0516 12.7715C77.2214 12.5974 76.5653 12.3965 76.0698 12.1555C75.5743 11.9144 75.2128 11.6198 74.9851 11.2583C74.7575 10.9101 74.637 10.4816 74.637 9.95938C74.637 9.38357 74.7977 8.87472 75.119 8.43282C75.427 7.99092 75.8689 7.62937 76.4447 7.37494C77.0205 7.12052 77.6767 7 78.4266 7C79.0961 7 79.7389 7.09374 80.3683 7.2946C80.9842 7.49546 81.4797 7.74989 81.8412 8.08466L81.1717 9.57104C80.3013 8.94167 79.3907 8.62029 78.44 8.62029C77.8909 8.62029 77.4624 8.72742 77.1545 8.92828C76.8465 9.14253 76.6858 9.43713 76.6858 9.79869C76.6858 10.0129 76.7527 10.187 76.8732 10.3209C76.9938 10.4682 77.1946 10.5887 77.4758 10.6959C77.7436 10.803 78.1454 10.9101 78.6676 11.0306C79.8862 11.2985 80.7566 11.6466 81.2922 12.0617C81.8145 12.4769 82.0823 13.0661 82.0823 13.8025C82.0823 14.6997 81.7341 15.3961 81.0512 15.9049C80.3683 16.4272 79.4041 16.6816 78.1722 16.6816Z" fill="#313131"/>
<path d="M86.3254 16.6669C85.629 16.6669 85.0131 16.5196 84.4908 16.2384C83.9686 15.9572 83.5535 15.5689 83.2723 15.0467C82.991 14.5378 82.8438 13.9352 82.8438 13.2389C82.8438 12.5426 82.991 11.94 83.2723 11.4177C83.5535 10.9089 83.9686 10.5205 84.4908 10.2393C85.0131 9.95813 85.629 9.82422 86.3254 9.82422C87.0217 9.82422 87.6377 9.95813 88.1599 10.2393C88.6822 10.5205 89.0973 10.9089 89.3785 11.4177C89.6597 11.94 89.807 12.5426 89.807 13.2389C89.807 13.9352 89.6597 14.5378 89.3785 15.0467C89.0973 15.5689 88.6822 15.9572 88.1599 16.2384C87.6377 16.5196 87.0217 16.6669 86.3254 16.6669ZM86.3254 15.127C87.3029 15.127 87.7984 14.4976 87.7984 13.2389C87.7984 12.6095 87.6778 12.1274 87.4234 11.8195C87.169 11.5115 86.794 11.3508 86.3254 11.3508C85.3478 11.3508 84.8524 11.9801 84.8524 13.2389C84.8524 14.4976 85.3478 15.127 86.3254 15.127Z" fill="#313131"/>
<path d="M96.1261 9.98543V8.0586H98.1424V9.98543H99.7928V11.4976H98.1424V14.0017C98.1424 14.7903 98.5082 15.1806 99.2481 15.1806C99.4513 15.1806 99.6627 15.1724 99.8903 15.1399L99.7765 16.6196C99.5245 16.6521 99.2643 16.6684 99.0042 16.6684C98.0042 16.6684 97.2725 16.4489 96.8172 16.0098C96.3538 15.5789 96.1261 14.9123 96.1261 14.018V11.4976H93.5163V16.5627H91.492V11.4976H90.248V9.98543H91.492C91.5082 9.0586 91.7765 8.35941 92.305 7.89599C92.8253 7.42445 93.622 7.15615 94.6952 7.09924L95.4269 7.05859L95.5489 8.53827L94.9229 8.57079C94.4025 8.58705 94.0367 8.68461 93.8253 8.85535C93.6139 9.03421 93.5163 9.31876 93.5163 9.71714V9.98543H96.1261Z" fill="#313131"/>
<path fill-rule="evenodd" clip-rule="evenodd" d="M4.76731 23.6845C4.69075 23.7246 4.59719 23.7234 4.52184 23.6785C4.4465 23.6347 4.3991 23.5545 4.39667 23.467C4.36629 21.0038 4.55829 7.94509 11.7074 0.244277C11.852 0.0887296 12.0537 0 12.2652 0C12.4766 0.00121521 12.6796 0.0887296 12.823 0.244277C19.949 7.94995 20.1604 21.0013 20.1337 23.4658C20.1313 23.5533 20.0851 23.6335 20.0085 23.6785C19.9332 23.7222 19.8408 23.7247 19.7631 23.6833C18.4032 22.9688 13.6202 20.4545 12.5009 19.8663C12.3539 19.7886 12.1777 19.7886 12.0306 19.8663C10.9102 20.4545 6.12713 22.97 4.76731 23.6845ZM12.2664 9.9733C13.5946 9.9733 14.6713 11.05 14.6713 12.3794C14.6713 13.7077 13.5946 14.7843 12.2664 14.7843C10.9369 14.7843 9.86027 13.7077 9.86027 12.3794C9.86027 11.05 10.9369 9.9733 12.2664 9.9733Z" fill="#313131"/>
<path d="M4.91679 8.13225C5.00428 8.1201 5.09178 8.15411 5.14768 8.22216C5.20358 8.29021 5.22059 8.38259 5.19142 8.46644C4.75152 9.74241 4.34684 11.1581 4.00293 12.7233C3.98349 12.8132 3.91665 12.8861 3.82794 12.9117C3.74044 12.9384 3.64444 12.9153 3.57882 12.8509C2.88129 12.1704 1.2359 10.5675 0.27467 9.63058C0.136136 9.49569 0.0862927 9.29397 0.145838 9.11169C0.205384 8.92819 0.364591 8.79454 0.55538 8.76659C1.84594 8.57944 4.01388 8.2635 4.91679 8.13225Z" fill="#313131"/>
<path d="M23.9762 8.76659C24.167 8.79454 24.3262 8.92819 24.3857 9.11169C24.4453 9.29397 24.3955 9.49569 24.2569 9.63058C23.2957 10.5675 21.6515 12.1704 20.954 12.8497C20.8883 12.9141 20.7923 12.9384 20.7048 12.9117C20.6161 12.8849 20.5493 12.8132 20.5299 12.7233C20.1859 11.1581 19.7813 9.74241 19.3414 8.46644C19.3122 8.3838 19.3292 8.29021 19.3851 8.22216C19.441 8.15411 19.5285 8.12007 19.616 8.13344C20.5189 8.26468 22.6869 8.57944 23.9762 8.76659Z" fill="#313131"/>
</g>
<defs>
<clipPath id="clip0_1_326">
<rect width="100" height="24" fill="white"/>
</clipPath>
</defs>
</svg>
