<svg width="40" height="40" viewBox="0 0 40 40" fill="none" xmlns="http://www.w3.org/2000/svg">
<circle cx="20" cy="20" r="19.4737" fill="white" stroke="#EBEBEB" stroke-width="1.05263"/>
<rect width="16" height="16" transform="translate(12 12)" fill="white"/>
<path d="M21.3833 21.857L21.0297 22.2105L21.7368 22.9176L22.0904 22.5641L21.3833 21.857ZM23.8421 20.1053L24.1957 20.4588L24.5492 20.1053L24.1957 19.7517L23.8421 20.1053ZM22.0904 17.6464L21.7368 17.2929L21.0297 18L21.3833 18.3536L22.0904 17.6464ZM21.7368 22.2105L22.0904 22.5641L24.1957 20.4588L23.8421 20.1053L23.4886 19.7517L21.3833 21.857L21.7368 22.2105ZM23.8421 20.1053L24.1957 19.7517L22.0904 17.6464L21.7368 18L21.3833 18.3536L23.4886 20.4588L23.8421 20.1053ZM23.8421 20.1053V19.6053H17V20.1053V20.6053H23.8421V20.1053Z" fill="#111111"/>
</svg>
